<?xml version="1.0" encoding="UTF-8" standalone="no"?>
<svg
   xmlns:dc="http://purl.org/dc/elements/1.1/"
   xmlns:cc="http://creativecommons.org/ns#"
   xmlns:rdf="http://www.w3.org/1999/02/22-rdf-syntax-ns#"
   xmlns:svg="http://www.w3.org/2000/svg"
   xmlns="http://www.w3.org/2000/svg"
   viewBox="0 0 53.587502 26.9625"
   height="26.9625"
   width="53.587502"
   xml:space="preserve"
   version="1.1"
   id="svg2"><metadata
     id="metadata8"><rdf:RDF><cc:Work
         rdf:about=""><dc:format>image/svg+xml</dc:format><dc:type
           rdf:resource="http://purl.org/dc/dcmitype/StillImage" /></cc:Work></rdf:RDF></metadata><defs
     id="defs6"><clipPath
       id="clipPath18"
       clipPathUnits="userSpaceOnUse"><path
         id="path20"
         d="m 0,0 428.707,0 0,215.723 L 0,215.723 0,0 Z" /></clipPath></defs><g
     transform="matrix(1.25,0,0,-1.25,0,26.9625)"
     id="g10"><g
       transform="scale(0.1,0.1)"
       id="g12"><g
         id="g14"><g
           clip-path="url(#clipPath18)"
           id="g16"><path
             id="path22"
             style="fill:#087bbb;fill-opacity:1;fill-rule:nonzero;stroke:none"
             d="m 375.805,111.859 49.699,101.864 -344.1134,0 -77.36326,-101.864 371.77766,0" /><path
             id="path24"
             style="fill:none;stroke:#ffffff;stroke-width:3.99993992;stroke-linecap:butt;stroke-linejoin:miter;stroke-miterlimit:4;stroke-dasharray:none;stroke-opacity:1"
             d="m 375.805,111.859 49.699,101.864 -344.1134,0 -77.36326,-101.864 371.77766,0 z" /><path
             id="path26"
             style="fill:#087bbb;fill-opacity:1;fill-rule:nonzero;stroke:none"
             d="m 425.523,121.273 -0.019,92.45 -49.699,-101.864 0,-109.85509 49.718,119.26909" /><path
             id="path28"
             style="fill:none;stroke:#ffffff;stroke-width:3.99993992;stroke-linecap:butt;stroke-linejoin:miter;stroke-miterlimit:4;stroke-dasharray:none;stroke-opacity:1"
             d="m 425.523,121.273 -0.019,92.45 -49.699,-101.864 0,-109.85509 49.718,119.26909 z" /><path
             id="path30"
             style="fill:#087bbb;fill-opacity:1;fill-rule:nonzero;stroke:none"
             d="m 375.805,2.00391 0,109.85509 -371.82453,0 0.13672,-109.85509 371.68781,0" /><path
             id="path32"
             style="fill:none;stroke:#ffffff;stroke-width:3.99993992;stroke-linecap:butt;stroke-linejoin:miter;stroke-miterlimit:4;stroke-dasharray:none;stroke-opacity:1"
             d="m 375.805,2.00391 0,109.85509 -371.82453,0 0.13672,-109.85509 371.68781,0 z" /><path
             id="path34"
             style="fill:#ffffff;fill-opacity:1;fill-rule:nonzero;stroke:none"
             d="m 363.004,165.773 -139.816,18.29 -6.454,-9.958 -121.5934,0.129 -14.8906,-16.789 125.723,0.059 -6.289,-9.688 163.32,17.957" /></g></g></g></g></svg>